#N canvas 0 0 1334 658 10;
#X obj 613 226 osc~;
#X obj 613 288 bob~;
#X obj 613 350 *~;
#X obj 613 193 line~;
#X obj 677 240 line~;
#X obj 647 330 line~;
#X msg 968 463 220 \, 55 100;
#X msg 1211 183 \$1 10;
#X obj 1211 205 line~;
#X obj 613 389 outlet~;
#X obj 988 259 hsl 128 15 0 127 0 0 empty empty empty -2 -8 0 10 -262144
-1 -1 7900 1;
#X obj 993 347 pack 0 0 0;
#X obj 988 279 mtof;
#X obj 1028 289 hsl 128 15 0 127 0 0 empty empty empty -2 -8 0 10 -262144
-1 -1 2450 1;
#X obj 1028 309 mtof;
#X obj 1061 103 hsl 128 15 0 1 0 0 empty empty empty -2 -8 0 10 -262144
-1 -1 2400 1;
#X obj 1061 123 * 5000;
#X obj 1061 145 t f f f;
#X obj 1074 373 hsl 128 15 0 127 0 0 empty empty empty -2 -8 0 10 -262144
-1 -1 6400 1;
#X obj 1079 461 pack 0 0 0;
#X obj 1074 393 mtof;
#X obj 1211 135 hsl 128 15 0 1 0 0 empty empty empty -2 -8 0 10 -262144
-1 -1 0 1;
#X obj 1211 155 * 4;
#X obj 1182 261 pack 1 0 0;
#X floatatom 1114 146 5 0 0 0 - - -, f 5;
#X floatatom 1102 418 5 0 0 0 - - -, f 5;
#X floatatom 1071 319 5 0 0 0 - - -, f 5;
#X floatatom 961 309 5 0 0 0 - - -, f 5;
#X obj 687 61 t b b b;
#X msg 993 369 \$1 \, \$2 \$3;
#X msg 1084 487 \$1 \, \$2 \$3;
#X msg 1182 284 \$1 \, \$2 \$3;
#X msg 667 297 1 \, 0 100;
#X msg 651 206 1100 \, 0 100;
#X msg 587 161 88 \, 22 100;
#X obj 602 43 inlet;
#X connect 0 0 1 0;
#X connect 1 0 2 0;
#X connect 2 0 9 0;
#X connect 3 0 0 0;
#X connect 4 0 1 1;
#X connect 5 0 2 1;
#X connect 7 0 8 0;
#X connect 10 0 12 0;
#X connect 11 0 29 0;
#X connect 12 0 11 0;
#X connect 12 0 27 0;
#X connect 13 0 14 0;
#X connect 14 0 11 1;
#X connect 14 0 26 0;
#X connect 15 0 16 0;
#X connect 16 0 17 0;
#X connect 16 0 24 0;
#X connect 17 0 11 2;
#X connect 17 1 19 2;
#X connect 17 2 23 2;
#X connect 18 0 20 0;
#X connect 19 0 30 0;
#X connect 20 0 19 0;
#X connect 20 0 25 0;
#X connect 21 0 22 0;
#X connect 22 0 7 0;
#X connect 23 0 31 0;
#X connect 28 0 34 0;
#X connect 28 1 33 0;
#X connect 28 2 32 0;
#X connect 32 0 5 0;
#X connect 33 0 4 0;
#X connect 34 0 3 0;
#X connect 35 0 28 0;
