#N canvas 0 69 1128 658 10;
#X obj 952 506 *~ 0.1;
#X obj 939 430 hsl 139 39 0.01 0.9 1 0 empty empty empty -2 -8 0 10
#fcfcfc #000000 #000000 6400 1;
#X obj 952 628 dac~;
#X obj 952 598 clip~ -0.9 0.9;
#X obj 985 484 - 0.01;
#X obj 1010 520 bng 61 250 50 0 empty empty empty 17 7 0 10 #ba0000
#000000 #000000;
#X obj 967 546 tgl 15 0 empty empty empty 17 7 0 10 #fcfcfc #000000
#000000 1 1;
#X obj 952 568 *~;
#X obj 941 484 r~ out;
#X obj 360 170 hsl 128 15 0 127 0 0 empty empty empty -2 -8 0 10 #fcfcfc
#000000 #000000 6550 1;
#X obj 360 523 s~ out;
#N canvas 0 0 450 300 (subpatch) 0;
#X array array1 100 float 3 black black;
#A 0 0 0 0 0 0 0 0 0 0 0 0 0 0 0 0 0 0 0 0 0 0 0 0 0 0 0 0 0 0 0 0
0 0 0 0 0 0 0 0 0 0 0 0 0 0 0 0 0 0 0 0 0 0 0 0 0 0 0 0 0 0 0 0 0 0
0 0 0 0 0 0 0 0 0 0 0 0 0 0 0 0 0 0 0 0 0 0 0 0 0 0 0 0 0 0 0 0 0 0
0;
#X coords 0 1 100 -1 200 140 1;
#X restore 70 490 graph;
#X obj 843 549 tgl 15 0 empty empty empty 17 7 0 10 #fcfcfc #000000
#000000 1 1;
#X obj 843 597 tabwrite~ array1;
#X obj 360 280 phasor~;
#X obj 360 193 mtof;
#X obj 843 572 metro 50;
#X obj 964 341 osc~ 0.5;
#X obj 964 366 expr~ ($v1 *0.5) + 0.5;
#X obj 960 400 s~ unip;
#X obj 1020 400 s~ bip;
#X obj 964 290 hsl 128 15 0.01 1 1 0 empty empty LFO\ Rate -2 -8 0
10 #fcfcfc #000000 #000000 0 1;
#X obj 964 313 expr ($f1 - 0.01) * 50;
#X obj 360 325 +~;
#X obj 360 350 wrap~;
#X obj 600 260 phasor~;
#X obj 600 295 +~;
#X obj 600 320 wrap~;
#X obj 390 70 expr~ 2 * ($v1 - 0.5);
#X obj 360 375 cos~;
#X obj 600 345 cos~;
#X obj 600 160 *~;
#X obj 970 70 hradio 15 0 0 8 op2ind empty op2\ index 0 -8 0 10 #fcfcfc
#000000 #000000 5;
#X obj 600 235 +~;
#X obj 970 100 hsl 128 15 0.01 20 1 0 op2detune empty op2\ detune -2
-8 0 10 #fcfcfc #000000 #000000 12700 1;
#X obj 610 213 expr $f1 - 0.01;
#X obj 615 135 + 1;
#X obj 375 300 r~ mods;
#X obj 600 560 s~ mods;
#X obj 360 220 s freq;
#X obj 570 140 r freq;
#X obj 600 400 *~;
#X obj 610 370 r op2vol;
#X obj 970 40 hsl 128 15 0.01 1 1 0 op2vol empty op2vol -2 -8 0 10
#fcfcfc #000000 #000000 12700 1;
#N canvas 0 69 1128 658 operator 0;
#X restore 150 160 pd operator;
#X obj 360 250 r freq;
#X obj 610 110 r op2ind;
#X obj 610 190 r op2detune;
#X obj 963 221 bng 47 250 50 0 trig empty trig -2 -8 0 10 #aaffd0 #000000
#000000;
#X msg 750 430 1 10;
#X msg 790 430 0 500;
#X obj 790 410 del 10;
#X obj 750 480 line~;
#X obj 750 385 r trig;
#X obj 750 505 s~ env;
#X obj 360 430 *~;
#X obj 375 402 r~ env;
#X obj 600 510 *~;
#X obj 615 427 r~ env;
#X obj 615 485 *~;
#X obj 630 460 r op2env;
#X obj 970 130 hsl 128 15 0.01 1 1 0 op2env empty op2\ envelope -2
-8 0 10 #fcfcfc #000000 #000000 6700 1;
#X connect 0 0 7 0;
#X connect 1 0 4 0;
#X connect 3 0 2 0;
#X connect 3 0 2 1;
#X connect 4 0 0 1;
#X connect 5 0 6 0;
#X connect 6 0 7 1;
#X connect 7 0 3 0;
#X connect 8 0 0 0;
#X connect 8 0 13 0;
#X connect 9 0 15 0;
#X connect 12 0 16 0;
#X connect 14 0 23 0;
#X connect 15 0 39 0;
#X connect 16 0 13 0;
#X connect 17 0 18 0;
#X connect 17 0 20 0;
#X connect 18 0 19 0;
#X connect 21 0 22 0;
#X connect 22 0 17 0;
#X connect 23 0 24 0;
#X connect 24 0 29 0;
#X connect 25 0 26 0;
#X connect 26 0 27 0;
#X connect 27 0 30 0;
#X connect 29 0 55 0;
#X connect 30 0 41 0;
#X connect 31 0 33 0;
#X connect 33 0 25 0;
#X connect 35 0 33 1;
#X connect 36 0 31 1;
#X connect 37 0 23 1;
#X connect 40 0 31 0;
#X connect 41 0 57 0;
#X connect 42 0 41 1;
#X connect 45 0 14 0;
#X connect 46 0 36 0;
#X connect 47 0 35 0;
#X connect 49 0 52 0;
#X connect 50 0 52 0;
#X connect 51 0 50 0;
#X connect 52 0 54 0;
#X connect 53 0 51 0;
#X connect 53 0 49 0;
#X connect 55 0 10 0;
#X connect 56 0 55 1;
#X connect 57 0 38 0;
#X connect 58 0 59 0;
#X connect 59 0 57 1;
#X connect 60 0 59 1;
