#N canvas -8 -8 1350 674 10;
#X obj 871 368 noise~;
#X obj 639 239 phasor~;
#X obj 516 713 output;
#X obj 569 299 +~;
#X obj 309 367 cos~;
#X obj 712 275 phasor~;
#X obj 712 319 wrap~;
#X obj 569 325 wrap~;
#X obj 828 368 pink~;
#X obj 661 389 *~ 0.5;
#X obj 712 298 +~;
#X obj 938 239 line~;
#X msg 938 213 \$1 50;
#X obj 787 306 expr~ (($v1 / 1) * 0.5) + 0.5;
#X obj 655 99 mtof~;
#X obj 712 388 *~ -0.5;
#X obj 639 212 +~;
#X obj 938 155 hsl 128 15 -1 1 0 0 empty empty Pulse-Width -2 -8 0
10 -262144 -1 -1 6350 1;
#X obj 938 185 * 0.5;
#X obj 671 161 hsl 128 15 -1 1 0 1 empty empty FM -2 -8 0 10 -262144
-1 -1 6350 1;
#X obj 656 181 *~;
#X msg 1025 119 0;
#X obj 1025 96 loadbang;
#X msg 735 129 0;
#X obj 735 106 loadbang;
#X obj 655 75 cstom;
#X obj 606 168 +~;
#X obj 501 62 hsl 128 15 0 127 0 0 empty empty empty -2 -8 0 10 -262144
-1 -1 0 1;
#X obj 501 82 sig~;
#X obj 501 104 mtof~;
#X connect 1 0 3 0;
#X connect 3 0 7 0;
#X connect 5 0 10 0;
#X connect 7 0 4 0;
#X connect 10 0 6 0;
#X connect 11 0 13 0;
#X connect 12 0 11 0;
#X connect 13 0 10 1;
#X connect 14 0 26 1;
#X connect 16 0 1 0;
#X connect 16 0 5 0;
#X connect 17 0 18 0;
#X connect 18 0 12 0;
#X connect 19 0 20 1;
#X connect 20 0 16 1;
#X connect 21 0 17 0;
#X connect 22 0 21 0;
#X connect 23 0 19 0;
#X connect 24 0 23 0;
#X connect 25 0 14 0;
#X connect 26 0 16 0;
#X connect 27 0 28 0;
#X connect 28 0 29 0;
#X connect 29 0 26 0;
