#N canvas -8 -8 1350 674 10;
#X obj 648 91 noise~;
#X obj 532 237 *~;
#X obj 532 191 osc~;
#X obj 505 164 line~;
#X obj 551 327 *~;
#X obj 663 405 line~;
#X obj 648 130 *~;
#X obj 736 230 *~;
#X obj 736 183 osc~;
#X obj 709 156 line~;
#X obj 575 191 hsl 128 15 0.01 1.01 1 0 empty empty empty -2 -8 0 10
-262144 -1 -1 3800 1;
#X obj 575 211 - 0.01;
#X obj 771 184 hsl 128 15 0.01 1.01 1 0 empty empty empty -2 -8 0 10
-262144 -1 -1 3600 1;
#X obj 771 204 - 0.01;
#X obj 694 91 hsl 128 15 0.01 1.01 1 0 empty empty empty -2 -8 0 10
-262144 -1 -1 8700 1;
#X obj 694 111 - 0.01;
#X msg 663 383 1 \, 0 200;
#X msg 505 142 220 \, 110 200;
#X msg 709 134 230 \, 120 200;
#X floatatom 521 397 5 0 0 0 - - -, f 5;
#X obj 289 290 line~;
#X msg 289 232 4000 \, 1000 200;
#X obj 464 423 vcf~;
#X obj 653 58 t b b b b;
#X obj 574 25 inlet;
#X obj 455 473 outlet~;
#X connect 0 0 6 0;
#X connect 1 0 4 0;
#X connect 2 0 1 0;
#X connect 3 0 2 0;
#X connect 4 0 22 0;
#X connect 5 0 4 1;
#X connect 6 0 4 0;
#X connect 7 0 4 0;
#X connect 8 0 7 0;
#X connect 9 0 8 0;
#X connect 10 0 11 0;
#X connect 11 0 1 1;
#X connect 12 0 13 0;
#X connect 13 0 7 1;
#X connect 14 0 15 0;
#X connect 15 0 6 1;
#X connect 16 0 5 0;
#X connect 17 0 3 0;
#X connect 18 0 9 0;
#X connect 19 0 22 2;
#X connect 20 0 22 1;
#X connect 21 0 20 0;
#X connect 22 0 25 0;
#X connect 23 0 17 0;
#X connect 23 1 18 0;
#X connect 23 2 21 0;
#X connect 23 3 16 0;
#X connect 24 0 23 0;
