#N canvas 442 179 450 300 10;
#X obj 128 79 hsl 128 15 0 127 0 0 empty empty \ Cutoff\ Frequency
-2 -8 0 10 -262144 -1 -1 0 1;
#X obj 97 173 bob~;
#X obj 128 121 pack 0 50;
#X obj 128 143 line~;
#X floatatom 307 136 5 0 200 0 - - -, f 5;
#X obj 307 179 pack 0 50;
#X obj 307 201 line~;
#X obj 128 99 mtof;
#X obj 283 71 hsl 128 15 0 1 0 0 empty empty Resonance -2 -8 0 10 -262144
-1 -1 0 1;
#X obj 283 91 expr $f1 * 8;
#X obj 59 43 inlet~;
#X obj 94 232 outlet~;
#X connect 0 0 7 0;
#X connect 1 0 11 0;
#X connect 2 0 3 0;
#X connect 3 0 1 1;
#X connect 4 0 5 0;
#X connect 5 0 6 0;
#X connect 6 0 1 2;
#X connect 7 0 2 0;
#X connect 8 0 9 0;
#X connect 9 0 4 0;
#X connect 10 0 1 0;
