#N canvas 118 206 450 300 10;
#X obj 198 179 *~;
#X obj 322 173 *~;
#X obj 215 143 expr 1 - $f1;
#X obj 164 66 inlet~;
#X obj 229 62 inlet~;
#X obj 181 251 outlet~;
#X obj 308 47 inlet;
#X connect 0 0 5 0;
#X connect 1 0 5 0;
#X connect 2 0 0 1;
#X connect 3 0 0 0;
#X connect 4 0 1 0;
#X connect 6 0 2 0;
#X connect 6 0 1 1;
